<mxfile host="Electron" modified="2023-04-16T21:17:10.083Z" agent="Mozilla/5.0 (Windows NT 10.0; Win64; x64) AppleWebKit/537.36 (KHTML, like Gecko) draw.io/21.1.2 Chrome/106.0.5249.199 Electron/21.4.3 Safari/537.36" etag="aktyKfNHUgriWLw4hdaA" version="21.1.2" type="device">
  <diagram id="R2lEEEUBdFMjLlhIrx00" name="Page-1">
    <mxGraphModel dx="1728" dy="1012" grid="1" gridSize="10" guides="1" tooltips="1" connect="1" arrows="1" fold="1" page="1" pageScale="1" pageWidth="850" pageHeight="1100" math="0" shadow="0" extFonts="Permanent Marker^https://fonts.googleapis.com/css?family=Permanent+Marker">
      <root>
        <mxCell id="0" />
        <mxCell id="1" parent="0" />
        <mxCell id="LMHk3252hcac3JZHm8-5-1" value="" style="rounded=0;whiteSpace=wrap;html=1;fillColor=none;" vertex="1" parent="1">
          <mxGeometry x="40" y="40" width="550" height="590" as="geometry" />
        </mxCell>
        <mxCell id="LMHk3252hcac3JZHm8-5-3" value="&lt;b&gt;Switchables&lt;/b&gt;" style="text;html=1;strokeColor=default;fillColor=none;align=center;verticalAlign=middle;whiteSpace=wrap;rounded=0;" vertex="1" parent="1">
          <mxGeometry x="40" y="40" width="120" height="30" as="geometry" />
        </mxCell>
        <mxCell id="LMHk3252hcac3JZHm8-5-5" value="&amp;lt;&amp;lt;interface&amp;gt;&amp;gt;&lt;br&gt;&lt;b&gt;ISwitchable&lt;/b&gt;" style="swimlane;fontStyle=0;align=center;verticalAlign=top;childLayout=stackLayout;horizontal=1;startSize=40;horizontalStack=0;resizeParent=1;resizeParentMax=0;resizeLast=0;collapsible=0;marginBottom=0;html=1;whiteSpace=wrap;" vertex="1" parent="1">
          <mxGeometry x="50" y="80" width="140" height="70" as="geometry" />
        </mxCell>
        <mxCell id="LMHk3252hcac3JZHm8-5-6" value="+ on()&lt;br&gt;+ off()" style="text;html=1;strokeColor=none;fillColor=none;align=left;verticalAlign=middle;spacingLeft=4;spacingRight=4;overflow=hidden;rotatable=0;points=[[0,0.5],[1,0.5]];portConstraint=eastwest;whiteSpace=wrap;" vertex="1" parent="LMHk3252hcac3JZHm8-5-5">
          <mxGeometry y="40" width="140" height="30" as="geometry" />
        </mxCell>
        <mxCell id="LMHk3252hcac3JZHm8-5-62" value="TimerFunction" style="swimlane;fontStyle=1;align=center;verticalAlign=top;childLayout=stackLayout;horizontal=1;startSize=26;horizontalStack=0;resizeParent=1;resizeParentMax=0;resizeLast=0;collapsible=1;marginBottom=0;whiteSpace=wrap;html=1;" vertex="1" parent="1">
          <mxGeometry x="370" y="320" width="200" height="140" as="geometry" />
        </mxCell>
        <mxCell id="LMHk3252hcac3JZHm8-5-63" value="+ StartTime: TimeOnly&lt;br&gt;+ EndTime: TimeOnly&lt;br&gt;+ Days: TimerDays&lt;br&gt;+ ProfileId: Guid" style="text;strokeColor=none;fillColor=none;align=left;verticalAlign=top;spacingLeft=4;spacingRight=4;overflow=hidden;rotatable=0;points=[[0,0.5],[1,0.5]];portConstraint=eastwest;whiteSpace=wrap;html=1;" vertex="1" parent="LMHk3252hcac3JZHm8-5-62">
          <mxGeometry y="26" width="200" height="64" as="geometry" />
        </mxCell>
        <mxCell id="LMHk3252hcac3JZHm8-5-64" value="" style="line;strokeWidth=1;fillColor=none;align=left;verticalAlign=middle;spacingTop=-1;spacingLeft=3;spacingRight=3;rotatable=0;labelPosition=right;points=[];portConstraint=eastwest;strokeColor=inherit;" vertex="1" parent="LMHk3252hcac3JZHm8-5-62">
          <mxGeometry y="90" width="200" height="8" as="geometry" />
        </mxCell>
        <mxCell id="LMHk3252hcac3JZHm8-5-65" value="+ WeekdaysOnly(): TimerFunction&lt;br&gt;+ WeekendsOnly(): TimerFunction" style="text;strokeColor=none;fillColor=none;align=left;verticalAlign=top;spacingLeft=4;spacingRight=4;overflow=hidden;rotatable=0;points=[[0,0.5],[1,0.5]];portConstraint=eastwest;whiteSpace=wrap;html=1;" vertex="1" parent="LMHk3252hcac3JZHm8-5-62">
          <mxGeometry y="98" width="200" height="42" as="geometry" />
        </mxCell>
        <mxCell id="LMHk3252hcac3JZHm8-5-67" value="" style="endArrow=none;dashed=1;endFill=0;endSize=12;html=1;rounded=0;exitX=0;exitY=0.5;exitDx=0;exitDy=0;edgeStyle=orthogonalEdgeStyle;" edge="1" parent="1">
          <mxGeometry width="160" relative="1" as="geometry">
            <mxPoint x="150" y="213" as="sourcePoint" />
            <mxPoint x="70" y="213" as="targetPoint" />
          </mxGeometry>
        </mxCell>
        <mxCell id="LMHk3252hcac3JZHm8-5-70" value="" style="endArrow=none;dashed=1;endFill=0;endSize=12;html=1;rounded=0;exitX=0;exitY=0.5;exitDx=0;exitDy=0;edgeStyle=orthogonalEdgeStyle;entryX=0.151;entryY=0.973;entryDx=0;entryDy=0;entryPerimeter=0;" edge="1" parent="1" source="LMHk3252hcac3JZHm8-5-75" target="LMHk3252hcac3JZHm8-5-6">
          <mxGeometry width="160" relative="1" as="geometry">
            <mxPoint x="140" y="423" as="sourcePoint" />
            <mxPoint x="70" y="310" as="targetPoint" />
          </mxGeometry>
        </mxCell>
        <mxCell id="LMHk3252hcac3JZHm8-5-71" value="" style="endArrow=none;html=1;rounded=0;exitX=0.998;exitY=0.425;exitDx=0;exitDy=0;exitPerimeter=0;edgeStyle=orthogonalEdgeStyle;entryX=0.01;entryY=0.581;entryDx=0;entryDy=0;entryPerimeter=0;" edge="1" parent="1" source="LMHk3252hcac3JZHm8-5-5" target="LMHk3252hcac3JZHm8-5-111">
          <mxGeometry width="50" height="50" relative="1" as="geometry">
            <mxPoint x="220" y="144" as="sourcePoint" />
            <mxPoint x="260" y="110" as="targetPoint" />
            <Array as="points">
              <mxPoint x="302" y="110" />
            </Array>
          </mxGeometry>
        </mxCell>
        <mxCell id="LMHk3252hcac3JZHm8-5-72" value="1..*" style="edgeLabel;html=1;align=center;verticalAlign=middle;resizable=0;points=[];" vertex="1" connectable="0" parent="LMHk3252hcac3JZHm8-5-71">
          <mxGeometry x="-0.9533" relative="1" as="geometry">
            <mxPoint x="6" as="offset" />
          </mxGeometry>
        </mxCell>
        <mxCell id="LMHk3252hcac3JZHm8-5-73" value="1" style="edgeLabel;html=1;align=center;verticalAlign=middle;resizable=0;points=[];" vertex="1" connectable="0" parent="LMHk3252hcac3JZHm8-5-71">
          <mxGeometry x="0.8554" relative="1" as="geometry">
            <mxPoint x="-7" as="offset" />
          </mxGeometry>
        </mxCell>
        <mxCell id="LMHk3252hcac3JZHm8-5-74" value="&lt;p style=&quot;margin:0px;margin-top:4px;text-align:center;&quot;&gt;&lt;b&gt;Light&lt;/b&gt;&lt;/p&gt;&lt;p style=&quot;margin:0px;margin-top:4px;text-align:center;&quot;&gt;(IAggregateRoot, ISwitchable)&lt;/p&gt;&lt;hr size=&quot;1&quot;&gt;&lt;p style=&quot;margin:0px;margin-left:4px;&quot;&gt;+ Id: Guid&lt;/p&gt;&lt;p style=&quot;margin:0px;margin-left:4px;&quot;&gt;+ Timer: Timer&lt;/p&gt;&lt;hr size=&quot;1&quot;&gt;&lt;p style=&quot;margin:0px;margin-left:4px;&quot;&gt;+ method(): Type&lt;/p&gt;" style="verticalAlign=top;align=left;overflow=fill;fontSize=12;fontFamily=Helvetica;html=1;whiteSpace=wrap;" vertex="1" parent="1">
          <mxGeometry x="150" y="160" width="170" height="90" as="geometry" />
        </mxCell>
        <mxCell id="LMHk3252hcac3JZHm8-5-75" value="&lt;p style=&quot;margin:0px;margin-top:4px;text-align:center;&quot;&gt;&lt;b&gt;RGB&lt;/b&gt;&lt;/p&gt;&lt;p style=&quot;margin:0px;margin-top:4px;text-align:center;&quot;&gt;(IAggregateRoot, ISwitchable)&lt;/p&gt;&lt;hr size=&quot;1&quot;&gt;&lt;p style=&quot;margin:0px;margin-left:4px;&quot;&gt;+ Id: Guid&lt;/p&gt;&lt;p style=&quot;margin:0px;margin-left:4px;&quot;&gt;+ Timer: Timer&lt;/p&gt;&lt;p style=&quot;margin:0px;margin-left:4px;&quot;&gt;+ Profile: RgbProfile&lt;/p&gt;&lt;hr size=&quot;1&quot;&gt;&lt;p style=&quot;margin:0px;margin-left:4px;&quot;&gt;+ SetProfile(RgbProfile)&lt;/p&gt;" style="verticalAlign=top;align=left;overflow=fill;fontSize=12;fontFamily=Helvetica;html=1;whiteSpace=wrap;" vertex="1" parent="1">
          <mxGeometry x="150" y="260" width="170" height="130" as="geometry" />
        </mxCell>
        <mxCell id="LMHk3252hcac3JZHm8-5-77" value="" style="endArrow=none;html=1;rounded=0;edgeStyle=orthogonalEdgeStyle;entryX=0.006;entryY=0.911;entryDx=0;entryDy=0;entryPerimeter=0;" edge="1" parent="1" target="LMHk3252hcac3JZHm8-5-86">
          <mxGeometry width="50" height="50" relative="1" as="geometry">
            <mxPoint x="320" y="300" as="sourcePoint" />
            <mxPoint x="380" y="279" as="targetPoint" />
            <Array as="points">
              <mxPoint x="320" y="300" />
              <mxPoint x="370" y="300" />
              <mxPoint x="370" y="273" />
            </Array>
          </mxGeometry>
        </mxCell>
        <mxCell id="LMHk3252hcac3JZHm8-5-78" value="1" style="edgeLabel;html=1;align=center;verticalAlign=middle;resizable=0;points=[];" vertex="1" connectable="0" parent="LMHk3252hcac3JZHm8-5-77">
          <mxGeometry x="-0.8821" relative="1" as="geometry">
            <mxPoint x="6" y="-1" as="offset" />
          </mxGeometry>
        </mxCell>
        <mxCell id="LMHk3252hcac3JZHm8-5-79" value="1" style="edgeLabel;html=1;align=center;verticalAlign=middle;resizable=0;points=[];" vertex="1" connectable="0" parent="LMHk3252hcac3JZHm8-5-77">
          <mxGeometry x="0.8603" relative="1" as="geometry">
            <mxPoint x="-5" as="offset" />
          </mxGeometry>
        </mxCell>
        <mxCell id="LMHk3252hcac3JZHm8-5-82" value="" style="endArrow=none;html=1;rounded=0;exitX=0.999;exitY=0.669;exitDx=0;exitDy=0;exitPerimeter=0;edgeStyle=orthogonalEdgeStyle;entryX=0;entryY=0.25;entryDx=0;entryDy=0;" edge="1" parent="1" source="LMHk3252hcac3JZHm8-5-74" target="LMHk3252hcac3JZHm8-5-86">
          <mxGeometry width="50" height="50" relative="1" as="geometry">
            <mxPoint x="330" y="340" as="sourcePoint" />
            <mxPoint x="350" y="280" as="targetPoint" />
            <Array as="points" />
          </mxGeometry>
        </mxCell>
        <mxCell id="LMHk3252hcac3JZHm8-5-88" value="1" style="edgeLabel;html=1;align=center;verticalAlign=middle;resizable=0;points=[];" vertex="1" connectable="0" parent="LMHk3252hcac3JZHm8-5-82">
          <mxGeometry x="-0.8635" relative="1" as="geometry">
            <mxPoint as="offset" />
          </mxGeometry>
        </mxCell>
        <mxCell id="LMHk3252hcac3JZHm8-5-89" value="1" style="edgeLabel;html=1;align=center;verticalAlign=middle;resizable=0;points=[];" vertex="1" connectable="0" parent="LMHk3252hcac3JZHm8-5-82">
          <mxGeometry x="0.9044" relative="1" as="geometry">
            <mxPoint x="-7" as="offset" />
          </mxGeometry>
        </mxCell>
        <mxCell id="LMHk3252hcac3JZHm8-5-84" value="RgbProfile is an entity owned by RGB, there are many profiles but RGB only has one at a time" style="rounded=0;whiteSpace=wrap;html=1;fillColor=#fff2cc;strokeColor=#d6b656;" vertex="1" parent="1">
          <mxGeometry x="45" y="400" width="120" height="80" as="geometry" />
        </mxCell>
        <mxCell id="LMHk3252hcac3JZHm8-5-86" value="&lt;p style=&quot;margin:0px;margin-top:4px;text-align:center;&quot;&gt;&lt;b&gt;Timer&lt;/b&gt;&lt;/p&gt;&lt;p style=&quot;margin:0px;margin-top:4px;text-align:center;&quot;&gt;(IAggregateRoot)&lt;/p&gt;&lt;hr size=&quot;1&quot;&gt;+ Functions: List&amp;lt;TimerFunction&amp;gt;&lt;div style=&quot;height:2px;&quot;&gt;&lt;/div&gt;&lt;hr size=&quot;1&quot;&gt;&lt;div style=&quot;height:2px;&quot;&gt;&lt;/div&gt;" style="verticalAlign=top;align=left;overflow=fill;fontSize=12;fontFamily=Helvetica;html=1;whiteSpace=wrap;" vertex="1" parent="1">
          <mxGeometry x="380" y="200" width="180" height="80" as="geometry" />
        </mxCell>
        <mxCell id="LMHk3252hcac3JZHm8-5-90" value="&lt;p style=&quot;margin:0px;margin-top:4px;text-align:center;&quot;&gt;&lt;b&gt;RgbProfile&lt;/b&gt;&lt;/p&gt;&lt;p style=&quot;margin:0px;margin-top:4px;text-align:center;&quot;&gt;(entity)&lt;/p&gt;&lt;hr size=&quot;1&quot;&gt;&lt;div style=&quot;height:2px;&quot;&gt;&lt;br&gt;&lt;/div&gt;+ Id: Guid,&lt;br&gt;+ Red: short&lt;br&gt;+ Green: short&lt;br&gt;+ Blue: short&lt;br&gt;&lt;hr size=&quot;1&quot;&gt;&lt;div style=&quot;height:2px;&quot;&gt;&lt;/div&gt;" style="verticalAlign=top;align=left;overflow=fill;fontSize=12;fontFamily=Helvetica;html=1;whiteSpace=wrap;" vertex="1" parent="1">
          <mxGeometry x="165" y="430" width="140" height="120" as="geometry" />
        </mxCell>
        <mxCell id="LMHk3252hcac3JZHm8-5-91" value="" style="endArrow=none;html=1;rounded=0;exitX=0.5;exitY=1;exitDx=0;exitDy=0;entryX=0.5;entryY=0;entryDx=0;entryDy=0;" edge="1" parent="1" source="LMHk3252hcac3JZHm8-5-75" target="LMHk3252hcac3JZHm8-5-90">
          <mxGeometry width="50" height="50" relative="1" as="geometry">
            <mxPoint x="430" y="360" as="sourcePoint" />
            <mxPoint x="480" y="310" as="targetPoint" />
          </mxGeometry>
        </mxCell>
        <mxCell id="LMHk3252hcac3JZHm8-5-92" value="1" style="edgeLabel;html=1;align=center;verticalAlign=middle;resizable=0;points=[];" vertex="1" connectable="0" parent="LMHk3252hcac3JZHm8-5-91">
          <mxGeometry x="-0.66" relative="1" as="geometry">
            <mxPoint as="offset" />
          </mxGeometry>
        </mxCell>
        <mxCell id="LMHk3252hcac3JZHm8-5-93" value="1" style="edgeLabel;html=1;align=center;verticalAlign=middle;resizable=0;points=[];" vertex="1" connectable="0" parent="LMHk3252hcac3JZHm8-5-91">
          <mxGeometry x="0.68" relative="1" as="geometry">
            <mxPoint y="-4" as="offset" />
          </mxGeometry>
        </mxCell>
        <mxCell id="LMHk3252hcac3JZHm8-5-94" value="" style="endArrow=none;html=1;rounded=0;exitX=0.5;exitY=1;exitDx=0;exitDy=0;entryX=0.5;entryY=0;entryDx=0;entryDy=0;" edge="1" parent="1" source="LMHk3252hcac3JZHm8-5-86" target="LMHk3252hcac3JZHm8-5-62">
          <mxGeometry width="50" height="50" relative="1" as="geometry">
            <mxPoint x="430" y="350" as="sourcePoint" />
            <mxPoint x="480" y="300" as="targetPoint" />
          </mxGeometry>
        </mxCell>
        <mxCell id="LMHk3252hcac3JZHm8-5-95" value="1" style="edgeLabel;html=1;align=center;verticalAlign=middle;resizable=0;points=[];" vertex="1" connectable="0" parent="LMHk3252hcac3JZHm8-5-94">
          <mxGeometry x="-0.696" relative="1" as="geometry">
            <mxPoint as="offset" />
          </mxGeometry>
        </mxCell>
        <mxCell id="LMHk3252hcac3JZHm8-5-96" value="1" style="edgeLabel;html=1;align=center;verticalAlign=middle;resizable=0;points=[];" vertex="1" connectable="0" parent="LMHk3252hcac3JZHm8-5-94">
          <mxGeometry x="0.744" relative="1" as="geometry">
            <mxPoint y="-4" as="offset" />
          </mxGeometry>
        </mxCell>
        <mxCell id="LMHk3252hcac3JZHm8-5-97" value="" style="rounded=0;whiteSpace=wrap;html=1;fillColor=none;" vertex="1" parent="1">
          <mxGeometry x="600" y="40" width="220" height="300" as="geometry" />
        </mxCell>
        <mxCell id="LMHk3252hcac3JZHm8-5-98" value="&lt;b&gt;Orchestration&lt;/b&gt;" style="text;html=1;strokeColor=default;fillColor=none;align=center;verticalAlign=middle;whiteSpace=wrap;rounded=0;" vertex="1" parent="1">
          <mxGeometry x="600" y="40" width="120" height="30" as="geometry" />
        </mxCell>
        <mxCell id="LMHk3252hcac3JZHm8-5-99" value="&lt;p style=&quot;margin:0px;margin-top:4px;text-align:center;&quot;&gt;&lt;b&gt;Room&lt;/b&gt;&lt;/p&gt;&lt;hr size=&quot;1&quot;&gt;&lt;div style=&quot;height:2px;&quot;&gt;&lt;/div&gt;&lt;hr size=&quot;1&quot;&gt;&lt;div style=&quot;height:2px;&quot;&gt;&lt;/div&gt;" style="verticalAlign=top;align=left;overflow=fill;fontSize=12;fontFamily=Helvetica;html=1;whiteSpace=wrap;" vertex="1" parent="1">
          <mxGeometry x="610" y="80" width="140" height="60" as="geometry" />
        </mxCell>
        <mxCell id="LMHk3252hcac3JZHm8-5-100" value="This is to illustrate two important concepts that exist across the whole domain. Orchestration module will be responsible for registering Devices (that become Light/RGB in Switchables) and&amp;nbsp; managing other entities like Rooms" style="rounded=0;whiteSpace=wrap;html=1;fillColor=#fff2cc;strokeColor=#d6b656;" vertex="1" parent="1">
          <mxGeometry x="610" y="220" width="200" height="110" as="geometry" />
        </mxCell>
        <mxCell id="LMHk3252hcac3JZHm8-5-101" value="&lt;p style=&quot;margin:0px;margin-top:4px;text-align:center;&quot;&gt;&lt;b&gt;Device&lt;/b&gt;&lt;/p&gt;&lt;hr size=&quot;1&quot;&gt;&lt;div style=&quot;height:2px;&quot;&gt;&lt;/div&gt;&lt;hr size=&quot;1&quot;&gt;&lt;div style=&quot;height:2px;&quot;&gt;&lt;/div&gt;" style="verticalAlign=top;align=left;overflow=fill;fontSize=12;fontFamily=Helvetica;html=1;whiteSpace=wrap;" vertex="1" parent="1">
          <mxGeometry x="610" y="150" width="140" height="60" as="geometry" />
        </mxCell>
        <mxCell id="LMHk3252hcac3JZHm8-5-106" value="" style="group" vertex="1" connectable="0" parent="1">
          <mxGeometry x="600" y="350" width="220" height="80" as="geometry" />
        </mxCell>
        <mxCell id="LMHk3252hcac3JZHm8-5-102" value="" style="rounded=0;whiteSpace=wrap;html=1;fillColor=none;" vertex="1" parent="LMHk3252hcac3JZHm8-5-106">
          <mxGeometry width="220" height="80" as="geometry" />
        </mxCell>
        <mxCell id="LMHk3252hcac3JZHm8-5-103" value="&lt;b&gt;User Access&lt;/b&gt;" style="text;html=1;strokeColor=default;fillColor=none;align=center;verticalAlign=middle;whiteSpace=wrap;rounded=0;" vertex="1" parent="LMHk3252hcac3JZHm8-5-106">
          <mxGeometry width="120" height="34.29" as="geometry" />
        </mxCell>
        <mxCell id="LMHk3252hcac3JZHm8-5-107" value="" style="group" vertex="1" connectable="0" parent="1">
          <mxGeometry x="600" y="550" width="220" height="80" as="geometry" />
        </mxCell>
        <mxCell id="LMHk3252hcac3JZHm8-5-104" value="" style="rounded=0;whiteSpace=wrap;html=1;fillColor=none;" vertex="1" parent="LMHk3252hcac3JZHm8-5-107">
          <mxGeometry width="220" height="80" as="geometry" />
        </mxCell>
        <mxCell id="LMHk3252hcac3JZHm8-5-105" value="&lt;b&gt;Cameras&lt;/b&gt;" style="text;html=1;strokeColor=default;fillColor=none;align=center;verticalAlign=middle;whiteSpace=wrap;rounded=0;" vertex="1" parent="LMHk3252hcac3JZHm8-5-107">
          <mxGeometry width="120" height="34.29" as="geometry" />
        </mxCell>
        <mxCell id="LMHk3252hcac3JZHm8-5-108" value="" style="group" vertex="1" connectable="0" parent="1">
          <mxGeometry x="600" y="450" width="220" height="80" as="geometry" />
        </mxCell>
        <mxCell id="LMHk3252hcac3JZHm8-5-109" value="" style="rounded=0;whiteSpace=wrap;html=1;fillColor=none;" vertex="1" parent="LMHk3252hcac3JZHm8-5-108">
          <mxGeometry width="220" height="80" as="geometry" />
        </mxCell>
        <mxCell id="LMHk3252hcac3JZHm8-5-110" value="&lt;b&gt;ClimateControl&lt;/b&gt;" style="text;html=1;strokeColor=default;fillColor=none;align=center;verticalAlign=middle;whiteSpace=wrap;rounded=0;" vertex="1" parent="LMHk3252hcac3JZHm8-5-108">
          <mxGeometry width="120" height="34.29" as="geometry" />
        </mxCell>
        <mxCell id="LMHk3252hcac3JZHm8-5-111" value="&lt;p style=&quot;margin:0px;margin-top:4px;text-align:center;&quot;&gt;&lt;b&gt;Room&lt;/b&gt;&lt;/p&gt;&lt;p style=&quot;margin:0px;margin-top:4px;text-align:center;&quot;&gt;(IAggregateRoot)&lt;/p&gt;&lt;hr size=&quot;1&quot;&gt;+ Devices: List&amp;lt;ISwitchable&amp;gt;&lt;br&gt;&lt;hr size=&quot;1&quot;&gt;&lt;div style=&quot;height:2px;&quot;&gt;&lt;br&gt;&lt;/div&gt;" style="verticalAlign=top;align=left;overflow=fill;fontSize=12;fontFamily=Helvetica;html=1;whiteSpace=wrap;" vertex="1" parent="1">
          <mxGeometry x="300" y="60" width="170" height="80" as="geometry" />
        </mxCell>
        <mxCell id="LMHk3252hcac3JZHm8-5-112" value="How we group devices needs more refinement" style="rounded=0;whiteSpace=wrap;html=1;fillColor=#fff2cc;strokeColor=#d6b656;" vertex="1" parent="1">
          <mxGeometry x="420" y="130" width="120" height="60" as="geometry" />
        </mxCell>
        <mxCell id="LMHk3252hcac3JZHm8-5-115" value="" style="edgeStyle=orthogonalEdgeStyle;rounded=0;orthogonalLoop=1;jettySize=auto;html=1;endArrow=none;endFill=0;entryX=0.45;entryY=1.002;entryDx=0;entryDy=0;entryPerimeter=0;" edge="1" parent="1" source="LMHk3252hcac3JZHm8-5-114" target="LMHk3252hcac3JZHm8-5-65">
          <mxGeometry relative="1" as="geometry">
            <Array as="points" />
          </mxGeometry>
        </mxCell>
        <mxCell id="LMHk3252hcac3JZHm8-5-116" value="1" style="edgeLabel;html=1;align=center;verticalAlign=middle;resizable=0;points=[];" vertex="1" connectable="0" parent="LMHk3252hcac3JZHm8-5-115">
          <mxGeometry x="0.7898" relative="1" as="geometry">
            <mxPoint as="offset" />
          </mxGeometry>
        </mxCell>
        <mxCell id="LMHk3252hcac3JZHm8-5-117" value="1" style="edgeLabel;html=1;align=center;verticalAlign=middle;resizable=0;points=[];" vertex="1" connectable="0" parent="LMHk3252hcac3JZHm8-5-115">
          <mxGeometry x="-0.725" relative="1" as="geometry">
            <mxPoint as="offset" />
          </mxGeometry>
        </mxCell>
        <mxCell id="LMHk3252hcac3JZHm8-5-114" value="&lt;p style=&quot;margin:0px;margin-top:4px;text-align:center;&quot;&gt;&lt;b&gt;TimerDays&lt;/b&gt;&lt;/p&gt;&lt;p style=&quot;margin:0px;margin-top:4px;text-align:center;&quot;&gt;(ValueObject)&lt;/p&gt;&lt;hr size=&quot;1&quot;&gt;+ Monday: bool&lt;br&gt;+ ...&lt;br&gt;+ Sunday: bool&lt;br&gt;&lt;div style=&quot;height:2px;&quot;&gt;&lt;/div&gt;&lt;hr size=&quot;1&quot;&gt;&lt;div style=&quot;height:2px;&quot;&gt;&lt;/div&gt;" style="verticalAlign=top;align=left;overflow=fill;fontSize=12;fontFamily=Helvetica;html=1;whiteSpace=wrap;" vertex="1" parent="1">
          <mxGeometry x="390" y="500" width="140" height="110" as="geometry" />
        </mxCell>
      </root>
    </mxGraphModel>
  </diagram>
</mxfile>
